<?xml version="1.0" encoding="iso-8859-1"?>
<!-- Generator: Adobe Illustrator 16.0.0, SVG Export Plug-In . SVG Version: 6.00 Build 0)  -->
<!DOCTYPE svg PUBLIC "-//W3C//DTD SVG 1.1//EN" "http://www.w3.org/Graphics/SVG/1.1/DTD/svg11.dtd">
<svg version="1.1" id="Capa_1" xmlns="http://www.w3.org/2000/svg" xmlns:xlink="http://www.w3.org/1999/xlink" x="0px" y="0px"
	 width="210.666px" height="210.666px" viewBox="0 0 210.666 210.666" style="enable-background:new 0 0 210.666 210.666;"
	 xml:space="preserve">
<g>
	<g>
		<path d="M110.244,126.818l0.913-1.577l-5.824,5.821c1.221,0,2.444-0.012,3.653-0.048
			C109.099,129.553,109.492,128.128,110.244,126.818z"/>
		<path d="M106.849,102.005l7.401,17.891l9.944-17.232c0.237-0.402,0.523-0.755,0.815-1.114c-3.367-2.183-7.13-3.974-11.246-5.015
			c6.187-4.159,10.442-12.364,10.442-19.747c0-10.425-8.445-18.873-18.873-18.873c-10.425,0-18.874,8.448-18.874,18.873
			c0,7.389,4.256,15.588,10.443,19.747c-3.623,0.917-7.002,2.396-10.062,4.217c0.317,0.962,0.53,1.973,0.53,3.045
			c0,1.754-0.432,3.349-1.129,4.756c0.691,1.346,1.129,2.855,1.129,4.475c0,1.754-0.432,3.355-1.129,4.762
			c0.697,1.352,1.129,2.862,1.129,4.47c0,1.766-0.432,3.361-1.129,4.774c0.457,0.889,0.737,1.851,0.917,2.861
			c5.474,0.779,11.822,1.169,18.169,1.169l-9.578-9.584l8.056-19.485h-0.08l-3.129-3.586c1.513,0.542,3.096,0.871,4.73,0.871
			c1.636,0,3.213-0.323,4.723-0.864l-3.127,3.58h-0.073V102.005z"/>
		<path d="M49.632,107.839H77.53c1.988,0,3.611-1.613,3.611-3.593v-0.45c0-1.985-1.623-3.617-3.611-3.617H49.632
			c-1.982,0-3.611,1.632-3.611,3.617v0.45C46.027,106.226,47.656,107.839,49.632,107.839z"/>
		<path d="M49.632,117.082H77.53c1.988,0,3.611-1.607,3.611-3.604v-0.445c0-1.99-1.623-3.61-3.611-3.61H49.632
			c-1.982,0-3.611,1.62-3.611,3.61v0.445C46.027,115.462,47.656,117.082,49.632,117.082z"/>
		<path d="M49.632,126.325H77.53c1.988,0,3.611-1.619,3.611-3.604v-0.45c0-1.979-1.623-3.6-3.611-3.6H49.632
			c-1.982,0-3.611,1.614-3.611,3.6v0.45C46.027,124.706,47.656,126.325,49.632,126.325z"/>
		<path d="M49.632,135.569H77.53c1.988,0,3.611-1.62,3.611-3.6v-0.456c0-1.974-1.623-3.604-3.611-3.604H49.632
			c-1.982,0-3.611,1.631-3.611,3.604v0.456C46.027,133.949,47.656,135.569,49.632,135.569z"/>
		<path d="M129.595,105.78l-13.95,24.162c-0.992,1.717-0.396,3.934,1.321,4.926l0.378,0.238c1.717,0.974,3.945,0.389,4.932-1.322
			l13.957-24.161c0.98-1.711,0.39-3.94-1.328-4.938l-0.39-0.226C132.804,103.467,130.581,104.063,129.595,105.78z"/>
		<path d="M135.77,113.478c0,1.984,1.619,3.604,3.604,3.604h27.907c1.979,0,3.599-1.607,3.599-3.604v-0.445
			c0-1.99-1.62-3.61-3.599-3.61h-27.907c-1.979,0-3.604,1.62-3.604,3.61V113.478z"/>
		<path d="M170.873,122.271c0-1.979-1.613-3.6-3.599-3.6h-27.912c-1.974,0-3.593,1.614-3.593,3.6v0.45
			c0,1.985,1.613,3.604,3.593,3.604h27.912c1.974,0,3.599-1.619,3.599-3.604V122.271z"/>
		<path d="M167.281,127.909h-27.907c-1.979,0-3.604,1.631-3.604,3.604v0.456c0,1.979,1.619,3.6,3.604,3.6h27.907
			c1.979,0,3.599-1.62,3.599-3.6v-0.456C170.873,129.528,169.26,127.909,167.281,127.909z"/>
		<polygon points="194.572,151.937 194.572,143.698 177.991,132.969 189.695,143.698 20.989,143.698 32.698,132.969 16.093,143.698 
			16.093,151.937 32.698,151.937 32.698,201.441 28.57,201.441 28.57,206.093 22.429,206.093 22.429,210.666 188.258,210.666 
			188.258,206.093 182.096,206.093 182.096,201.441 177.991,201.441 177.991,151.937 		"/>
		<path d="M105.333,50.93c14.044,0,25.468-11.423,25.468-25.471C130.801,11.423,119.365,0,105.333,0
			C91.291,0,79.868,11.423,79.868,25.458C79.868,39.506,91.285,50.93,105.333,50.93z M84.475,26.046h2.027v-1.147h-2.027
			c0.1-3.38,1.035-6.537,2.557-9.341l1.696,0.983l0.576-0.989l-1.723-0.999c1.717-2.786,4.04-5.118,6.835-6.841l1.005,1.729
			l0.983-0.566L95.426,7.17c2.798-1.525,5.955-2.463,9.335-2.555v2.019h0.478l-3.084,6.168h2.088v12.663
			c0,0.106,0.08,0.167,0.11,0.262c0.027,0.094-0.013,0.188,0.039,0.274l4.159,7.209l-1.809,1.041l5.925,3.916l-0.42-7.097
			l-1.809,1.042l-4.016-6.951V12.802h2.089l-3.078-6.168h0.466l0.006-2.019c3.38,0.092,6.53,1.029,9.331,2.555l-0.986,1.705
			l0.999,0.566l0.986-1.729c2.789,1.717,5.127,4.049,6.845,6.841l-1.724,1.005l0.578,0.983l1.693-0.983
			c1.528,2.804,2.46,5.955,2.563,9.335h-2.028v1.147h2.022c-0.098,3.38-1.035,6.534-2.564,9.341l-1.698-0.986l-0.566,0.98
			l1.724,0.995c-1.724,2.789-4.062,5.118-6.845,6.841l-0.999-1.723l-0.979,0.569l0.979,1.702c-2.807,1.528-5.951,2.463-9.331,2.557
			v-2.021h-1.145v2.021c-3.38-0.094-6.543-1.029-9.335-2.557l0.983-1.702l-0.989-0.569l-0.993,1.729
			c-2.792-1.714-5.13-4.053-6.847-6.841l1.729-1.001l-0.575-0.986l-1.702,0.977C85.51,32.574,84.575,29.426,84.475,26.046z"/>
	</g>
</g>
<g>
</g>
<g>
</g>
<g>
</g>
<g>
</g>
<g>
</g>
<g>
</g>
<g>
</g>
<g>
</g>
<g>
</g>
<g>
</g>
<g>
</g>
<g>
</g>
<g>
</g>
<g>
</g>
<g>
</g>
</svg>
